<mxfile host="Electron" agent="Mozilla/5.0 (X11; Linux x86_64) AppleWebKit/537.36 (KHTML, like Gecko) draw.io/25.0.2 Chrome/128.0.6613.186 Electron/32.2.7 Safari/537.36" version="25.0.2">
  <diagram name="Page-1" id="oqQ2McUhoEsaBUuCJM77">
    <mxGraphModel dx="676" dy="414" grid="1" gridSize="10" guides="1" tooltips="1" connect="1" arrows="1" fold="1" page="1" pageScale="1" pageWidth="850" pageHeight="1100" math="0" shadow="0">
      <root>
        <mxCell id="0" />
        <mxCell id="1" parent="0" />
        <mxCell id="R9Wh-ikJB5XkgolVcX7a-12" style="edgeStyle=orthogonalEdgeStyle;rounded=0;orthogonalLoop=1;jettySize=auto;html=1;exitX=1;exitY=0.5;exitDx=0;exitDy=0;entryX=0;entryY=0.5;entryDx=0;entryDy=0;dashed=1;" edge="1" parent="1">
          <mxGeometry relative="1" as="geometry">
            <mxPoint x="360.0000000000002" y="320" as="sourcePoint" />
            <mxPoint x="439.9999999999998" y="320" as="targetPoint" />
          </mxGeometry>
        </mxCell>
        <mxCell id="R9Wh-ikJB5XkgolVcX7a-36" style="edgeStyle=orthogonalEdgeStyle;rounded=0;orthogonalLoop=1;jettySize=auto;html=1;exitX=0.25;exitY=1;exitDx=0;exitDy=0;entryX=0.25;entryY=0;entryDx=0;entryDy=0;" edge="1" parent="1" source="R9Wh-ikJB5XkgolVcX7a-1" target="R9Wh-ikJB5XkgolVcX7a-2">
          <mxGeometry relative="1" as="geometry" />
        </mxCell>
        <mxCell id="R9Wh-ikJB5XkgolVcX7a-1" value="entrypoint" style="rounded=0;whiteSpace=wrap;html=1;" vertex="1" parent="1">
          <mxGeometry x="360" y="420" width="120" height="60" as="geometry" />
        </mxCell>
        <mxCell id="R9Wh-ikJB5XkgolVcX7a-25" style="edgeStyle=orthogonalEdgeStyle;rounded=0;orthogonalLoop=1;jettySize=auto;html=1;exitX=0.5;exitY=1;exitDx=0;exitDy=0;entryX=0.5;entryY=0;entryDx=0;entryDy=0;" edge="1" parent="1" source="R9Wh-ikJB5XkgolVcX7a-2" target="R9Wh-ikJB5XkgolVcX7a-23">
          <mxGeometry relative="1" as="geometry" />
        </mxCell>
        <mxCell id="R9Wh-ikJB5XkgolVcX7a-37" style="edgeStyle=orthogonalEdgeStyle;rounded=0;orthogonalLoop=1;jettySize=auto;html=1;exitX=0.75;exitY=0;exitDx=0;exitDy=0;entryX=0.75;entryY=1;entryDx=0;entryDy=0;dashed=1;strokeColor=default;align=center;verticalAlign=middle;fontFamily=Helvetica;fontSize=11;fontColor=default;labelBackgroundColor=default;endArrow=classic;" edge="1" parent="1" source="R9Wh-ikJB5XkgolVcX7a-2" target="R9Wh-ikJB5XkgolVcX7a-1">
          <mxGeometry relative="1" as="geometry" />
        </mxCell>
        <mxCell id="R9Wh-ikJB5XkgolVcX7a-2" value="core" style="rounded=0;whiteSpace=wrap;html=1;" vertex="1" parent="1">
          <mxGeometry x="360" y="520" width="120" height="180" as="geometry" />
        </mxCell>
        <mxCell id="R9Wh-ikJB5XkgolVcX7a-6" value="какого типа юс кейсы для core создавать?&lt;br&gt;- patchNode&amp;nbsp;&lt;br&gt;OR&lt;br&gt;- linkNode&lt;br&gt;- unlinkNode&lt;br&gt;- updateNodeCover&lt;br&gt;and etc&lt;br&gt;(more detalaized)" style="text;align=left;verticalAlign=top;resizable=0;points=[];autosize=1;strokeColor=none;fillColor=none;spacing=0;html=1;fontColor=default;" vertex="1" parent="1">
          <mxGeometry x="1120" y="540" width="250" height="120" as="geometry" />
        </mxCell>
        <mxCell id="R9Wh-ikJB5XkgolVcX7a-7" value="это мультимедиа библиотека&lt;br&gt;она созданна для того, чтобы:&lt;br&gt;1. хранить файлы&lt;br&gt;2. предоставлять к ним доступ&lt;br&gt;3. связывать файлы" style="text;align=left;verticalAlign=top;resizable=0;points=[];autosize=1;strokeColor=none;fillColor=none;horizontal=1;spacing=0;html=1;fontColor=default;" vertex="1" parent="1">
          <mxGeometry x="1120" y="420" width="190" height="80" as="geometry" />
        </mxCell>
        <mxCell id="R9Wh-ikJB5XkgolVcX7a-11" value="направление зависимостей в коде" style="text;align=left;verticalAlign=top;resizable=0;points=[];autosize=1;strokeColor=none;fillColor=none;horizontal=1;spacing=0;html=1;fontColor=default;" vertex="1" parent="1">
          <mxGeometry x="360" y="280" width="210" height="20" as="geometry" />
        </mxCell>
        <mxCell id="R9Wh-ikJB5XkgolVcX7a-13" style="edgeStyle=orthogonalEdgeStyle;rounded=0;orthogonalLoop=1;jettySize=auto;html=1;exitX=1;exitY=0.5;exitDx=0;exitDy=0;entryX=0;entryY=0.5;entryDx=0;entryDy=0;" edge="1" parent="1">
          <mxGeometry relative="1" as="geometry">
            <mxPoint x="600.0000000000002" y="320" as="sourcePoint" />
            <mxPoint x="679.9999999999998" y="320" as="targetPoint" />
          </mxGeometry>
        </mxCell>
        <mxCell id="R9Wh-ikJB5XkgolVcX7a-14" value="направление хода выполнения программы" style="text;align=left;verticalAlign=top;resizable=0;points=[];autosize=1;strokeColor=none;fillColor=none;horizontal=1;spacing=0;html=1;fontColor=default;" vertex="1" parent="1">
          <mxGeometry x="600" y="280" width="260" height="20" as="geometry" />
        </mxCell>
        <mxCell id="R9Wh-ikJB5XkgolVcX7a-31" style="edgeStyle=orthogonalEdgeStyle;rounded=0;orthogonalLoop=1;jettySize=auto;html=1;exitX=1;exitY=0.25;exitDx=0;exitDy=0;entryX=0;entryY=0.25;entryDx=0;entryDy=0;dashed=1;strokeColor=default;align=center;verticalAlign=middle;fontFamily=Helvetica;fontSize=11;fontColor=default;labelBackgroundColor=default;endArrow=classic;" edge="1" parent="1" source="R9Wh-ikJB5XkgolVcX7a-19" target="R9Wh-ikJB5XkgolVcX7a-1">
          <mxGeometry relative="1" as="geometry" />
        </mxCell>
        <mxCell id="R9Wh-ikJB5XkgolVcX7a-19" value="http-server-adapter" style="rounded=0;whiteSpace=wrap;html=1;" vertex="1" parent="1">
          <mxGeometry x="160" y="420" width="120" height="60" as="geometry" />
        </mxCell>
        <mxCell id="R9Wh-ikJB5XkgolVcX7a-20" value="GET" style="rounded=0;whiteSpace=wrap;html=1;" vertex="1" parent="1">
          <mxGeometry x="160" y="580" width="120" height="60" as="geometry" />
        </mxCell>
        <mxCell id="R9Wh-ikJB5XkgolVcX7a-21" value="POST" style="rounded=0;whiteSpace=wrap;html=1;" vertex="1" parent="1">
          <mxGeometry x="160" y="660" width="120" height="60" as="geometry" />
        </mxCell>
        <mxCell id="R9Wh-ikJB5XkgolVcX7a-39" style="edgeStyle=orthogonalEdgeStyle;rounded=0;orthogonalLoop=1;jettySize=auto;html=1;exitX=1;exitY=0.5;exitDx=0;exitDy=0;entryX=0;entryY=0.5;entryDx=0;entryDy=0;" edge="1" parent="1" source="R9Wh-ikJB5XkgolVcX7a-23" target="R9Wh-ikJB5XkgolVcX7a-28">
          <mxGeometry relative="1" as="geometry" />
        </mxCell>
        <mxCell id="R9Wh-ikJB5XkgolVcX7a-23" value="init" style="rounded=0;whiteSpace=wrap;html=1;" vertex="1" parent="1">
          <mxGeometry x="360" y="740" width="120" height="60" as="geometry" />
        </mxCell>
        <mxCell id="R9Wh-ikJB5XkgolVcX7a-28" value="listen" style="rounded=0;whiteSpace=wrap;html=1;" vertex="1" parent="1">
          <mxGeometry x="520" y="740" width="120" height="60" as="geometry" />
        </mxCell>
        <mxCell id="R9Wh-ikJB5XkgolVcX7a-32" value="listen" style="rounded=0;whiteSpace=wrap;html=1;" vertex="1" parent="1">
          <mxGeometry x="160" y="500" width="120" height="60" as="geometry" />
        </mxCell>
        <mxCell id="R9Wh-ikJB5XkgolVcX7a-34" style="edgeStyle=orthogonalEdgeStyle;rounded=0;orthogonalLoop=1;jettySize=auto;html=1;exitX=0.5;exitY=1;exitDx=0;exitDy=0;entryX=0.5;entryY=0;entryDx=0;entryDy=0;" edge="1" parent="1" source="R9Wh-ikJB5XkgolVcX7a-33" target="R9Wh-ikJB5XkgolVcX7a-28">
          <mxGeometry relative="1" as="geometry" />
        </mxCell>
        <mxCell id="R9Wh-ikJB5XkgolVcX7a-38" style="edgeStyle=orthogonalEdgeStyle;rounded=0;orthogonalLoop=1;jettySize=auto;html=1;exitX=0;exitY=0.5;exitDx=0;exitDy=0;entryX=1;entryY=0.5;entryDx=0;entryDy=0;dashed=1;strokeColor=default;align=center;verticalAlign=middle;fontFamily=Helvetica;fontSize=11;fontColor=default;labelBackgroundColor=default;endArrow=classic;" edge="1" parent="1" source="R9Wh-ikJB5XkgolVcX7a-33" target="R9Wh-ikJB5XkgolVcX7a-2">
          <mxGeometry relative="1" as="geometry" />
        </mxCell>
        <mxCell id="R9Wh-ikJB5XkgolVcX7a-33" value="http-server-context" style="rounded=0;whiteSpace=wrap;html=1;" vertex="1" parent="1">
          <mxGeometry x="520" y="520" width="120" height="180" as="geometry" />
        </mxCell>
        <mxCell id="R9Wh-ikJB5XkgolVcX7a-40" value="GET /:nodeId" style="rounded=0;whiteSpace=wrap;html=1;" vertex="1" parent="1">
          <mxGeometry x="360" y="820" width="120" height="60" as="geometry" />
        </mxCell>
        <mxCell id="R9Wh-ikJB5XkgolVcX7a-41" value="POST /:nodeId" style="rounded=0;whiteSpace=wrap;html=1;" vertex="1" parent="1">
          <mxGeometry x="360" y="900" width="120" height="60" as="geometry" />
        </mxCell>
        <mxCell id="R9Wh-ikJB5XkgolVcX7a-46" value="допустим, http-server-context&lt;div&gt;будет просто интерфейс&lt;/div&gt;&lt;div&gt;для подключения адаптера&lt;/div&gt;&lt;div&gt;&lt;br&gt;&lt;/div&gt;&lt;div&gt;чтобы подключить адаптер&lt;/div&gt;&lt;div&gt;к приложению, он должен подходить по всем требованиям интерфейса.&lt;/div&gt;&lt;div&gt;только для этого и нужен контекст&lt;/div&gt;" style="text;align=left;verticalAlign=top;resizable=0;points=[];autosize=1;strokeColor=none;fillColor=none;horizontal=1;spacing=0;html=1;fontColor=default;" vertex="1" parent="1">
          <mxGeometry x="680" y="520" width="420" height="110" as="geometry" />
        </mxCell>
        <mxCell id="R9Wh-ikJB5XkgolVcX7a-47" value="все роуты буду прописывать на уровне core&lt;div&gt;эти роуты будут вызывать методы в http-context&lt;/div&gt;&lt;div&gt;http-context будет вызывать методы в адаптере&lt;/div&gt;" style="text;align=left;verticalAlign=top;resizable=0;points=[];autosize=1;strokeColor=none;fillColor=none;horizontal=1;spacing=0;html=1;fontColor=default;" vertex="1" parent="1">
          <mxGeometry x="520" y="840" width="290" height="50" as="geometry" />
        </mxCell>
        <mxCell id="R9Wh-ikJB5XkgolVcX7a-48" value="я бы всетаки выделил роуты в контекст, пока не понимаю как их вызывать из core" style="text;align=left;verticalAlign=top;resizable=0;points=[];autosize=1;strokeColor=none;fillColor=none;horizontal=1;spacing=0;html=1;fontColor=default;" vertex="1" parent="1">
          <mxGeometry x="520" y="920" width="480" height="20" as="geometry" />
        </mxCell>
      </root>
    </mxGraphModel>
  </diagram>
</mxfile>
